# xmcd
#
# Track frame offsets:
#	150
#	15217
#	31367
#	43635
#	57705
#	70790
#	86222
#	99442
#	112912
#	127929
#	141932
#	155985
#	169342
#	183230
#
# Disc length: 2655 seconds
#
# Revision: 1
# Processed by: cddbd v1.5.1PL0 Copyright (c) Steve Scherf et al.
# Submitted via: audiograbber 1.83.01
#
DISCID=bc0a5d0e
DTITLE=WALDIK SORIANO - APLAUSO
DYEAR=1900
DGENRE=
TTITLE0=PAIXÃO DE UM HOMEM
TTITLE1=EU NÃO SOU CACHORRO NÃO
TTITLE2=QUEM ÉS TU
TTITLE3=TORTURA DE AMOR
TTITLE4=PERFUME DE GARDÊNIA
TTITLE5=FUJO DE TI
TTITLE6=QUEM EU QUERO NÃO ME QUER
TTITLE7=VESTIDA DE BRANCO
TTITLE8=O CONFORMADO
TTITLE9=ESTA NOITE EU QUERIA QUE O MUNDO ACABASSE
TTITLE10=O MENSAGEIRO
TTITLE11=VAMOS GOZAR A VIDA
TTITLE12=ANGÚSTIA
TTITLE13=EU TAMBÉM SOU GENTE
EXTD=
EXTT0=
EXTT1=
EXTT2=
EXTT3=
EXTT4=
EXTT5=
EXTT6=
EXTT7=
EXTT8=
EXTT9=
EXTT10=
EXTT11=
EXTT12=
EXTT13=
PLAYORDER=
